<?xml version="1.0" ?><svg viewBox="0 0 22.079 22.079" xmlns="http://www.w3.org/2000/svg"><g data-name="Layer 2" id="Layer_2"><g data-name="Layer 1" id="Layer_1-2"><path d="M20.852,2.676h-1.9V.335A.335.335,0,0,0,18.622,0H3.457a.335.335,0,0,0-.335.335V2.676h-1.9A1.228,1.228,0,0,0,0,3.9V18.622a1.228,1.228,0,0,0,1.226,1.227H6.69V21.41H4.349a.335.335,0,1,0,0,.669H17.73a.335.335,0,0,0,0-.669H15.388V19.849h5.464a1.228,1.228,0,0,0,1.227-1.227V3.9A1.229,1.229,0,0,0,20.852,2.676ZM3.791.669h14.5V16.95H3.791ZM.669,3.9a.558.558,0,0,1,.557-.558h1.9v13.6H.669ZM14.719,21.41H7.36V19.849h7.359Zm6.691-2.788a.558.558,0,0,1-.558.558H1.226c-.789-.02-.51-1.066-.557-1.561H21.41Zm0-1.672H18.956V3.345h1.9a.558.558,0,0,1,.558.558ZM16.5,12.165c.65.657.409,2.062.453,2.889a.335.335,0,0,1-.335.334H12.154a.335.335,0,0,1-.334-.334V13.431c0-.448.294-1.659.923-1.312a.335.335,0,0,1,.047.471c-.457.455-.259,1.555-.3,2.129h3.791V13.431c.1-.532-.644-.965-.254-1.312A.334.334,0,0,1,16.5,12.165Zm-.663-1.349a1.45,1.45,0,0,0-2.9,0A1.45,1.45,0,0,0,15.834,10.816Zm-2.23,0a.781.781,0,0,1,1.562,0A.781.781,0,0,1,13.6,10.816Zm-3.8,1.349c.648.658.408,2.062.452,2.889a.334.334,0,0,1-.334.334H5.463a.335.335,0,0,1-.334-.334V13.431c0-.448.293-1.659.923-1.312a.335.335,0,0,1,.046.471c-.457.455-.258,1.555-.3,2.129H9.589V13.431a1.314,1.314,0,0,0-.3-.841.335.335,0,1,1,.517-.425Zm-.663-1.349a1.45,1.45,0,0,0-2.9,0A1.45,1.45,0,0,0,9.143,10.816Zm-2.23,0a.781.781,0,0,1,1.561,0A.781.781,0,0,1,6.913,10.816ZM16.5,4.582c.652.656.41,2.062.454,2.889a.335.335,0,0,1-.335.334H12.154a.335.335,0,0,1-.334-.334V5.847c0-.448.294-1.658.923-1.311a.334.334,0,0,1,.047.47c-.457.456-.259,1.556-.3,2.13h3.791V5.847c.1-.532-.643-.963-.255-1.311A.333.333,0,0,1,16.5,4.582Zm-2.111.1a1.45,1.45,0,0,0,0-2.9A1.45,1.45,0,0,0,14.385,4.683Zm0-2.231a.781.781,0,0,1,0,1.562A.781.781,0,0,1,14.385,2.452ZM9.806,4.582c.648.657.408,2.063.452,2.889a.334.334,0,0,1-.334.334H5.463a.335.335,0,0,1-.334-.334V5.847c0-.448.293-1.658.923-1.311a.333.333,0,0,1,.046.47c-.457.456-.258,1.556-.3,2.13H9.589V5.847c.1-.531-.643-.965-.254-1.311A.335.335,0,0,1,9.806,4.582Zm-2.112.1a1.45,1.45,0,0,0,0-2.9A1.45,1.45,0,0,0,7.694,4.683Zm0-2.231a.781.781,0,0,1,0,1.562A.781.781,0,0,1,7.694,2.452Z" id="webinar"/></g></g></svg>